<?xml version="1.0" encoding="UTF-8"?> <!-- Generator: Adobe Illustrator 23.0.1, SVG Export Plug-In . SVG Version: 6.00 Build 0) --> <svg xmlns="http://www.w3.org/2000/svg" xmlns:xlink="http://www.w3.org/1999/xlink" version="1.1" x="0px" y="0px" viewBox="0 0 936 242" style="enable-background:new 0 0 936 242;" xml:space="preserve"> <style type="text/css"> .st0{fill:#BA536B;} .st1{display:none;} .st2{display:inline;} .st3{fill:#1A7EFB;} </style> <g id="Layer_1"> <g> <g> <g> <path d="M680.6,219.7c-1.2,0.3-2.3,0.2-3.5,0L680.6,219.7z"></path> </g> </g> </g> <g> <path class="st0" d="M932.3,93.6c0.4,0.2,0.7,1.2,0.6,2.3c0,1.1-1.5,2.6-3.4,3.3c0,0,0,0-1.6,0.8c-2.7,1.4-6.1,2.3-5,6.9 c0.2,0.7-0.9,2.1-1.8,2.7c-7.4,5.9-15.2,10-24.9,9.7c-4.6-0.1-4.6-0.1-4.6-0.1c-5.5,1.8-9,5.9-7.8,9.3c0,0,0,0-2.7,2 c-2.4,1.8-2.4,1.8-2.4,1.8c-2.9,1.8-4.6,6.7-3.8,10.9c0,0,0,0-3.3,1.6c-4.1,2-8.6,3.2-12.5,5.5c-1.9,1.1-3.5,3.6-4.4,5.8 c-1,2.6,0.7,4.5,3,5.6c0.8,0.4,1.6,0.8,2.3,1.3c0.9,0.7,2.5,1.7,2.4,2.4c-0.2,1.2-1.2,2.4-2.2,3.2c-1.3,1-3,1.4-4.3,2.4 c-1.6,1.2-3.1,2.4-0.5,4.6c0.8,0.7,0.6,3.5,0,4.9c-0.7,1.6-2.2,2.9-3.6,3.9c-2.2,1.5-4.5,3.4-6.9,3.7c-4.9,0.7-9.9,0.4-14.8,0.5 c-4.8,0.1-4.8,0.1-4.8,0.1c-4.5,0.1-9.2,1.4-10.6,2.9s-3.7,8.1-2.5,12c0,0,0,0-2.8,2.2c-1.6,1.3-3.9,1.7-6,2.1 c-3.1,0.6-6.2,0.7-9.3,1.3c-2.7,0.5-5.2,1.6-7.8,2.3c-4,0.9-8.2,1.6-12.2,2.5c-7.1,1.7-13.6,5.6-21.3,4.8 c-4.7-0.5-9.6,0.7-14.4,0.9c-5.5,0.2-11,0-16.6,0c-0.7,0-0.7,0-0.7,0c-0.7,0-10.1-0.1-20.9-0.1s-20.4,0-21.3,0s-11.6,0-23.7,0 l-529.1,0c-12.1,0-22,0-22,0c0,0-3,0.1-6.8,0.2c0,0,0,0-3.4,0.1c-12.5,0.2-25.1-0.5-37.5,2.1c-6.4,1.3-12.9,2.2-19.3,3.5 c-4.5,0.9-6.9-0.9-7.3-5.8c-0.1-1.6,0.3-3.2,0.4-4.8c0-1.7,0.4-3.7-0.2-5.2c-1.1-2.9-0.5-4.8,1.7-6.6c0.8-0.6,0.8-0.6,0.8-0.6 c0.6-1,0.2-2.5-0.8-3.2c0,0,0,0-1-0.3c-4.9-1.2-7.2-6.6-4.9-11.3c0.4-0.7,0.4-2.1,0-2.8c-1.3-2.3-0.4-3.7,1.4-4.9 c1.4-0.9,1.4-0.9,1.4-0.9c1.4-0.8,1.7-4.4,0.8-8c0,0,0,0,1.1-1.7c1.2-1.9,1.2-1.9,1.2-1.9c3.3-0.8,6.7-2.7,7.6-4.3 s2.5-6.9,0.8-8.9c0,0,0,0-1.5,0c-5.5,0-11,0.6-16.6,1.2c-4,0.4-7.9,1.5-11.9,1.8c-2.9,0.2-4.7-1.8-5-4.9c-0.3-2.7,0.1-5.1,3.4-5.6 c0.8-0.1,0.8-0.1,0.8-0.1c0.7-0.8,0.4-3.9-0.7-6.9c0,0,0,0,3.5-2.5c1.1-0.8,2.4-1.3,3.5-2.2c0.5-0.4,0.8-1.9,0.6-2 c-2.9-2.2-5.8-4.4-8.8-6.3c-3.2-2.1-5.6-12.5-3-15.4c1.3-1.4,1.3-1.4,1.3-1.4c2.2-0.8,3.6-3.2,3.2-5.4c0,0,0,0,0.4-1.9 c0.8-4.4,4.7-4.5,7.8-5c2.3-0.4,3.3-1.1,3.8-3.4c1-4.1,3.6-6.5,7.8-7c3.2-0.4,3.2-0.4,3.2-0.4c3.5-0.7,6.4-4.2,6.4-8 c0,0,0,0,6.3-1.2c3.7-0.7,7.5-1.1,11.2-1.8c1.2-0.2,2.5-0.7,3.5-1.3c3.2-2.1,3.2-4.6,0.5-7.2c-0.8-0.8-1.3-3.1-0.8-4.2 c0.9-2.3,1.7-4,0.3-6.5c-1-1.7-0.5-3.9,2-4.7c1.3-0.4,2.6-1.1,3.9-1.5c2.2-0.6,2.5-2.1,1.6-3.9c-1.9-4.3-1.6-5.3,3.1-6.2 c3.3-0.7,6.8-0.5,10.2-1c6.1-0.9,12.2-2.7,18.3-2.8c5.6-0.1,18.2-0.4,31.4-0.7c3.4-0.1,6.7-0.1,10.1-0.2 c15.9-0.3,30.1-0.6,31.3-0.5c10.4,0.8,20.9,1.7,31.3,2.6c2.1,0.2,15.8-1,20.6-1.2c8.1-0.4,32.3-5.6,35.9-6.7 c1.2-0.4,2.5-0.6,3.7-0.7c4.7-0.3,48.1-3.1,53.8-3.4c11.8-0.6,23.5-1.5,35.3-2c7.2-0.3,14.5,0.1,21.7-0.1 c14.9-0.5,29.9-1.3,44.8-2c4.2-0.2,8.4-0.3,12.5-0.4c5.4-0.1,10.8,0,16.2-0.2c9.3-0.2,18.5-0.7,27.8-0.8c5.5,0,11,0.8,16.6,0.7 c10-0.2,20-1,30-1.2c7.8-0.1,15.5,0.5,23.3,0.4c17.4-0.2,34.8-0.6,52.2-0.8c5.7,0,11.5,0.5,17.2,0.5c15.3,0,30.5-0.2,45.8-0.2 c7.5,0,15,0.7,22.5,0.6c14.3-0.2,28.7-1.1,43-1.1c20.5,0,41,0.6,61.5,0.8c6.5,0.1,13,0,19.4,0c8.5,0,17,0.4,25.4-0.1 c9.3-0.5,18.7-1.6,27.9-2.8c4.4-0.6,4.4-0.6,4.4-0.6c4.8-1.2,9.5-2.2,10.6-2.2c1.1,0,4.2,1.1,7,2.4c0,0,0,0,1.7,2 c1.9,2.2,4.1,3,6.3,4.4c3.6,2.4,6.3,6,9.3,9.2c2.5,2.6,4.5,6,7.4,7.6c2.8,1.5,4.3,2.7,2.8,5.8c-0.8,1.7-0.8,1.7-0.8,1.7 c-1.5,1.7-1.1,3.5,0.7,4c0,0,0,0,1.5,1c1.2,0.8,2.8,2.3,2.8,3.5c0,2.8,1.2,4.3,3.3,5.1c7.8,2.9,9.3,10.7,12.3,17.3 c0.7,1.5,0.2,3.9-0.3,5.7c-0.5,2-2.9,4.7-2.3,5.7c1.1,1.7,3.7,2.4,5.7,3.5C932.3,93.6,932.3,93.6,932.3,93.6z"></path> </g> </g> <g id="Layer_1_copy" class="st1"> <g class="st2"> <g> <g> <path d="M680.6,219.7c-1.2,0.3-2.3,0.2-3.5,0L680.6,219.7z"></path> </g> </g> </g> <g class="st2"> <path class="st3" d="M932.3,93.6c0.4,0.2,0.7,1.2,0.6,2.3c0,1.1-1.5,2.6-3.4,3.3c0,0,0,0-1.6,0.8c-2.7,1.4-6.1,2.3-5,6.9 c0.2,0.7-0.9,2.1-1.8,2.7c-7.4,5.9-15.2,10-24.9,9.7c-4.6-0.1-4.6-0.1-4.6-0.1c-5.5,1.8-9,5.9-7.8,9.3c0,0,0,0-2.7,2 c-2.4,1.8-2.4,1.8-2.4,1.8c-2.9,1.8-4.6,6.7-3.8,10.9c0,0,0,0-3.3,1.6c-4.1,2-8.6,3.2-12.5,5.5c-1.9,1.1-3.5,3.6-4.4,5.8 c-1,2.6,0.7,4.5,3,5.6c0.8,0.4,1.6,0.8,2.3,1.3c0.9,0.7,2.5,1.7,2.4,2.4c-0.2,1.2-1.2,2.4-2.2,3.2c-1.3,1-3,1.4-4.3,2.4 c-1.6,1.2-3.1,2.4-0.5,4.6c0.8,0.7,0.6,3.5,0,4.9c-0.7,1.6-2.2,2.9-3.6,3.9c-2.2,1.5-4.5,3.4-6.9,3.7c-4.9,0.7-9.9,0.4-14.8,0.5 c-4.8,0.1-4.8,0.1-4.8,0.1c-4.5,0.1-9.2,1.4-10.6,2.9s-3.7,8.1-2.5,12c0,0,0,0-2.8,2.2c-1.6,1.3-3.9,1.7-6,2.1 c-3.1,0.6-6.2,0.7-9.3,1.3c-2.7,0.5-5.2,1.6-7.8,2.3c-4,0.9-8.2,1.6-12.2,2.5c-7.1,1.7-13.6,5.6-21.3,4.8 c-4.7-0.5-9.6,0.7-14.4,0.9c-5.5,0.2-11,0-16.6,0c-0.7,0-0.7,0-0.7,0c-0.7,0-10.1-0.1-20.9-0.1s-20.4,0-21.3,0s-11.6,0-23.7,0 l-529.1,0c-12.1,0-22,0-22,0c0,0-3,0.1-6.8,0.2c0,0,0,0-3.4,0.1c-12.5,0.2-25.1-0.5-37.5,2.1c-6.4,1.3-12.9,2.2-19.3,3.5 c-4.5,0.9-6.9-0.9-7.3-5.8c-0.1-1.6,0.3-3.2,0.4-4.8c0-1.7,0.4-3.7-0.2-5.2c-1.1-2.9-0.5-4.8,1.7-6.6c0.8-0.6,0.8-0.6,0.8-0.6 c0.6-1,0.2-2.5-0.8-3.2c0,0,0,0-1-0.3c-4.9-1.2-7.2-6.6-4.9-11.3c0.4-0.7,0.4-2.1,0-2.8c-1.3-2.3-0.4-3.7,1.4-4.9 c1.4-0.9,1.4-0.9,1.4-0.9c1.4-0.8,1.7-4.4,0.8-8c0,0,0,0,1.1-1.7c1.2-1.9,1.2-1.9,1.2-1.9c3.3-0.8,6.7-2.7,7.6-4.3 s2.5-6.9,0.8-8.9c0,0,0,0-1.5,0c-5.5,0-11,0.6-16.6,1.2c-4,0.4-7.9,1.5-11.9,1.8c-2.9,0.2-4.7-1.8-5-4.9c-0.3-2.7,0.1-5.1,3.4-5.6 c0.8-0.1,0.8-0.1,0.8-0.1c0.7-0.8,0.4-3.9-0.7-6.9c0,0,0,0,3.5-2.5c1.1-0.8,2.4-1.3,3.5-2.2c0.5-0.4,0.8-1.9,0.6-2 c-2.9-2.2-5.8-4.4-8.8-6.3c-3.2-2.1-5.6-12.5-3-15.4c1.3-1.4,1.3-1.4,1.3-1.4c2.2-0.8,3.6-3.2,3.2-5.4c0,0,0,0,0.4-1.9 c0.8-4.4,4.7-4.5,7.8-5c2.3-0.4,3.3-1.1,3.8-3.4c1-4.1,3.6-6.5,7.8-7c3.2-0.4,3.2-0.4,3.2-0.4c3.5-0.7,6.4-4.2,6.4-8 c0,0,0,0,6.3-1.2c3.7-0.7,7.5-1.1,11.2-1.8c1.2-0.2,2.5-0.7,3.5-1.3c3.2-2.1,3.2-4.6,0.5-7.2c-0.8-0.8-1.3-3.1-0.8-4.2 c0.9-2.3,1.7-4,0.3-6.5c-1-1.7-0.5-3.9,2-4.7c1.3-0.4,2.6-1.1,3.9-1.5c2.2-0.6,2.5-2.1,1.6-3.9c-1.9-4.3-1.6-5.3,3.1-6.2 c3.3-0.7,6.8-0.5,10.2-1c6.1-0.9,12.2-2.7,18.3-2.8c5.6-0.1,18.2-0.4,31.4-0.7c3.4-0.1,6.7-0.1,10.1-0.2 c15.9-0.3,30.1-0.6,31.3-0.5c10.4,0.8,20.9,1.7,31.3,2.6c2.1,0.2,15.8-1,20.6-1.2c8.1-0.4,32.3-5.6,35.9-6.7 c1.2-0.4,2.5-0.6,3.7-0.7c4.7-0.3,48.1-3.1,53.8-3.4c11.8-0.6,23.5-1.5,35.3-2c7.2-0.3,14.5,0.1,21.7-0.1 c14.9-0.5,29.9-1.3,44.8-2c4.2-0.2,8.4-0.3,12.5-0.4c5.4-0.1,10.8,0,16.2-0.2c9.3-0.2,18.5-0.7,27.8-0.8c5.5,0,11,0.8,16.6,0.7 c10-0.2,20-1,30-1.2c7.8-0.1,15.5,0.5,23.3,0.4c17.4-0.2,34.8-0.6,52.2-0.8c5.7,0,11.5,0.5,17.2,0.5c15.3,0,30.5-0.2,45.8-0.2 c7.5,0,15,0.7,22.5,0.6c14.3-0.2,28.7-1.1,43-1.1c20.5,0,41,0.6,61.5,0.8c6.5,0.1,13,0,19.4,0c8.5,0,17,0.4,25.4-0.1 c9.3-0.5,18.7-1.6,27.9-2.8c4.4-0.6,4.4-0.6,4.4-0.6c4.8-1.2,9.5-2.2,10.6-2.2c1.1,0,4.2,1.1,7,2.4c0,0,0,0,1.7,2 c1.9,2.2,4.1,3,6.3,4.4c3.6,2.4,6.3,6,9.3,9.2c2.5,2.6,4.5,6,7.4,7.6c2.8,1.5,4.3,2.7,2.8,5.8c-0.8,1.7-0.8,1.7-0.8,1.7 c-1.5,1.7-1.1,3.5,0.7,4c0,0,0,0,1.5,1c1.2,0.8,2.8,2.3,2.8,3.5c0,2.8,1.2,4.3,3.3,5.1c7.8,2.9,9.3,10.7,12.3,17.3 c0.7,1.5,0.2,3.9-0.3,5.7c-0.5,2-2.9,4.7-2.3,5.7c1.1,1.7,3.7,2.4,5.7,3.5C932.3,93.6,932.3,93.6,932.3,93.6z"></path> </g> </g> </svg> 